<?xml version="1.0" encoding="UTF-8"?>
<svg xmlns="http://www.w3.org/2000/svg" xmlns:xlink="http://www.w3.org/1999/xlink" width="770" height="180" style="overflow: visible;" viewBox="0 0 770 180" data-svgdocument="" id="_coFzKRGqBYMIJBnZ_CCwX" class="fl-svgdocument" x="0" y="0">
   <defs id="_y2W6K0kFSVbPfTpNSaNNa" transform="matrix(1.1756470203399658, 0, 0, 1.1756470203399658, -23.171878814697266, 192.9158935546875)" data-uid="o_ejn45ig2a_6" />
    <path id="_BATRyMAZJLXPz1LAsjwes" fill="#1c55ff" data-type="circle" data-cx="88.385" data-cy="88.385" data-r="88.385" d="M88.385,88.385m-88.385,0a88.385,88.385 0 1, 0 176.77,0a88.385,88.385 0 1, 0 -176.77,0" data-uid="o_ejn45ig2a_7" />
   <path id="_Xc3C9J8BZYW5QKfviSALD" 
    d="M91.019,40.902c-1.945,0-3.521-1.576-3.521-3.52c0-0.555,0.14-1.073,0.369-1.54c-3.819-9.117-10.873-16.544-19.729-20.836  v11.815l-7.038,7.04l2.348,3.521h15.251v8.799h11.908c-0.072-0.502-0.117-1.011-0.2-1.509l3.456-0.645  c0.412,2.422,0.674,4.894,0.674,7.433c0,24.299-19.697,43.996-43.995,43.996c-19.457,0-35.921-12.646-41.727-30.156  c-1.325-0.504-2.271-1.777-2.271-3.279c0-1.944,1.576-3.521,3.52-3.521c1.943,0,3.52,1.576,3.52,3.521  c0,1.08-0.496,2.031-1.261,2.678c0.78,2.253,1.774,4.406,2.92,6.459l10.659-9.137v-12.32h10.56v-7.041h-7.04v-7.039H13.284  c-2.071,4.864-3.221,10.217-3.221,15.839c0,0.949,0.078,1.879,0.142,2.812l-3.487,0.649c-0.09-1.146-0.175-2.294-0.175-3.464  c0-24.298,19.698-43.997,43.998-43.997c18.04,0,33.493,10.88,40.282,26.417c0.065-0.003,0.127-0.019,0.195-0.019  c1.943,0,3.518,1.576,3.518,3.521C94.536,39.326,92.962,40.902,91.019,40.902z M75.179,40.902H64.618v10.559h10.561V40.902z   M91.019,51.461c0-0.594-0.058-1.173-0.085-1.759H78.698v5.279h-7.041l-0.018,9.419l-2.995,3.325L80.72,78.37  C87.105,71.215,91.019,61.807,91.019,51.461z M17.288,74.433c7.295,10.562,19.443,17.507,33.253,17.507  c10.711,0,20.424-4.19,27.663-10.984L66.394,70.397L62.86,74.34h-8.799v3.521H36.462v-5.28l-7.92-7.92l-0.88,0.881L17.288,74.433z   M50.541,74.34V63.781h-10.56V74.34H50.541z M29.422,53.22v6.802l7.04,7.039v-6.8h17.599v10.56H61.1l7.038-7.039V54.98H61.1V40.902  l-3.519-5.279H47.021v7.039h-7.04V53.22H29.422z M32.941,35.623v3.519h10.56v-10.56H39.98h-7.04L32.941,35.623L32.941,35.623z   M36.462,13.551c-9.193,3.417-16.828,10.037-21.474,18.552h14.434v-7.041l0,0h7.04V13.551z M64.618,13.529  c-4.384-1.633-9.12-2.544-14.077-2.544c-3.661,0-7.189,0.53-10.561,1.438v12.639h7.04v7.041h10.561l7.037-7.041V13.529z" fill="#ffffff" 
    transform="translate(0, -2) scale(1.75)" 
    data-uid="o_ejn45ig2a_8" />
   <path text="PipelineRD" text-anchor="start" font-size="100" letter-spacing="0" side="left" offset="0" dx="0" dy="0" space="preserve" href="" font-family="Montserrat" font-scale="contain" transform="translate(190, 125)" x="0" y="0" fill="#1c55ff" font-weight="700" data-fl-textpath="" id="_8aQbwXwIqHgRNT3mfYdpv" data-uid="o_ejn45ig2a_9" d="M 38.6-70Q 47.9-70  54.75-66.9Q 61.6-63.8  65.3-58.1Q 69-52.4  69-44.6L 69-44.6Q 69-36.9  65.3-31.15Q 61.6-25.4  54.75-22.35Q 47.9-19.3  38.6-19.3L 38.6-19.3L 24.5-19.3L 24.5 0L 8.3 0L 8.3-70L 38.6-70ZM 37.7-32.5Q 45-32.5  48.8-35.65Q 52.6-38.8  52.6-44.6L 52.6-44.6Q 52.6-50.5  48.8-53.65Q 45-56.8  37.7-56.8L 37.7-56.8L 24.5-56.8L 24.5-32.5L 37.7-32.5ZM 79.4 0L 79.4-53.8L 95-53.8L 95 0L 79.4 0ZM 87.2-61.3Q 82.9-61.3  80.2-63.8Q 77.5-66.3  77.5-70L 77.5-70Q 77.5-73.7  80.2-76.2Q 82.9-78.7  87.2-78.7L 87.2-78.7Q 91.5-78.7  94.2-76.3Q 96.9-73.9  96.9-70.3L 96.9-70.3Q 96.9-66.4  94.2-63.85Q 91.5-61.3  87.2-61.3L 87.2-61.3ZM 141.3-54.6Q 148.8-54.6  154.95000000000002-51.15Q 161.10000000000002-47.7  164.60000000000002-41.45Q 168.10000000000002-35.2  168.10000000000002-26.9L 168.10000000000002-26.9Q 168.10000000000002-18.6  164.60000000000002-12.35Q 161.10000000000002-6.1  154.95000000000002-2.65Q 148.8 0.8  141.3 0.8L 141.3 0.8Q 131 0.8  125.10000000000001-5.7L 125.10000000000001-5.7L 125.10000000000001 19.4L 109.50000000000001 19.4L 109.50000000000001-53.8L 124.4-53.8L 124.4-47.6Q 130.20000000000002-54.6  141.3-54.6L 141.3-54.6ZM 138.60000000000002-12Q 144.60000000000002-12  148.45000000000002-16.05Q 152.3-20.1  152.3-26.9L 152.3-26.9Q 152.3-33.7  148.45000000000002-37.75Q 144.60000000000002-41.8  138.60000000000002-41.8L 138.60000000000002-41.8Q 132.60000000000002-41.8  128.75-37.75Q 124.9-33.7  124.9-26.9L 124.9-26.9Q 124.9-20.1  128.75-16.05Q 132.60000000000002-12  138.60000000000002-12L 138.60000000000002-12ZM 231.20000000000002-26.7Q 231.20000000000002-26.4  230.9-22.5L 230.9-22.5L 190.20000000000002-22.5Q 191.3-17.5  195.4-14.6Q 199.5-11.7  205.60000000000002-11.7L 205.60000000000002-11.7Q 209.8-11.7  213.05-12.95Q 216.3-14.2  219.10000000000002-16.9L 219.10000000000002-16.9L 227.4-7.9Q 219.8 0.8  205.20000000000002 0.8L 205.20000000000002 0.8Q 196.10000000000002 0.8  189.10000000000002-2.75Q 182.10000000000002-6.3  178.3-12.6Q 174.5-18.9  174.5-26.9L 174.5-26.9Q 174.5-34.8  178.25-41.15Q 182-47.5  188.55-51.05Q 195.10000000000002-54.6  203.20000000000002-54.6L 203.20000000000002-54.6Q 211.10000000000002-54.6  217.5-51.2Q 223.9-47.8  227.55-41.45Q 231.20000000000002-35.1  231.20000000000002-26.7L 231.20000000000002-26.7ZM 203.3-42.8Q 198-42.8  194.4-39.8Q 190.8-36.8  190-31.6L 190-31.6L 216.5-31.6Q 215.70000000000002-36.7  212.10000000000002-39.75Q 208.5-42.8  203.3-42.8L 203.3-42.8ZM 241.6 0L 241.6-74.2L 257.2-74.2L 257.2 0L 241.6 0ZM 271.7 0L 271.7-53.8L 287.3-53.8L 287.3 0L 271.7 0ZM 279.5-61.3Q 275.2-61.3  272.5-63.8Q 269.8-66.3  269.8-70L 269.8-70Q 269.8-73.7  272.5-76.2Q 275.2-78.7  279.5-78.7L 279.5-78.7Q 283.8-78.7  286.5-76.3Q 289.2-73.9  289.2-70.3L 289.2-70.3Q 289.2-66.4  286.5-63.85Q 283.8-61.3  279.5-61.3L 279.5-61.3ZM 334.5-54.6Q 344.5-54.6  350.65000000000003-48.6Q 356.8-42.6  356.8-30.8L 356.8-30.8L 356.8 0L 341.20000000000005 0L 341.20000000000005-28.4Q 341.20000000000005-34.8  338.40000000000003-37.95Q 335.6-41.1  330.3-41.1L 330.3-41.1Q 324.40000000000003-41.1  320.90000000000003-37.45Q 317.40000000000003-33.8  317.40000000000003-26.6L 317.40000000000003-26.6L 317.40000000000003 0L 301.8 0L 301.8-53.8L 316.70000000000005-53.8L 316.70000000000005-47.5Q 319.8-50.9  324.40000000000003-52.75Q 329-54.6  334.5-54.6L 334.5-54.6ZM 424.2-26.7Q 424.2-26.4  423.90000000000003-22.5L 423.90000000000003-22.5L 383.2-22.5Q 384.3-17.5  388.40000000000003-14.6Q 392.5-11.7  398.6-11.7L 398.6-11.7Q 402.8-11.7  406.05-12.95Q 409.3-14.2  412.1-16.9L 412.1-16.9L 420.40000000000003-7.9Q 412.8 0.8  398.2 0.8L 398.2 0.8Q 389.1 0.8  382.1-2.75Q 375.1-6.3  371.3-12.6Q 367.5-18.9  367.5-26.9L 367.5-26.9Q 367.5-34.8  371.25-41.15Q 375-47.5  381.55-51.05Q 388.1-54.6  396.2-54.6L 396.2-54.6Q 404.1-54.6  410.5-51.2Q 416.90000000000003-47.8  420.55-41.45Q 424.2-35.1  424.2-26.7L 424.2-26.7ZM 396.3-42.8Q 391-42.8  387.40000000000003-39.8Q 383.8-36.8  383-31.6L 383-31.6L 409.5-31.6Q 408.7-36.7  405.1-39.75Q 401.5-42.8  396.3-42.8L 396.3-42.8ZM 497.70000000000005 0L 480.3 0L 466.8-19.5L 466.00000000000006-19.5L 451.90000000000003-19.5L 451.90000000000003 0L 435.70000000000005 0L 435.70000000000005-70L 466.00000000000006-70Q 475.3-70  482.15000000000003-66.9Q 489.00000000000006-63.8  492.70000000000005-58.1Q 496.40000000000003-52.4  496.40000000000003-44.6L 496.40000000000003-44.6Q 496.40000000000003-36.8  492.65000000000003-31.15Q 488.90000000000003-25.5  482.00000000000006-22.5L 482.00000000000006-22.5L 497.70000000000005 0ZM 480.00000000000006-44.6Q 480.00000000000006-50.5  476.20000000000005-53.65Q 472.40000000000003-56.8  465.1-56.8L 465.1-56.8L 451.90000000000003-56.8L 451.90000000000003-32.4L 465.1-32.4Q 472.40000000000003-32.4  476.20000000000005-35.6Q 480.00000000000006-38.8  480.00000000000006-44.6L 480.00000000000006-44.6ZM 509.20000000000005 0L 509.20000000000005-70L 541-70Q 552.4000000000001-70  561.1500000000001-65.65Q 569.9000000000001-61.3  574.75-53.4Q 579.6-45.5  579.6-35L 579.6-35Q 579.6-24.5  574.75-16.6Q 569.9000000000001-8.7  561.1500000000001-4.35Q 552.4000000000001 0  541 0L 541 0L 509.20000000000005 0ZM 525.4000000000001-13.3L 540.2-13.3Q 550.7-13.3  556.95-19.15Q 563.2-25  563.2-35L 563.2-35Q 563.2-45  556.95-50.85Q 550.7-56.7  540.2-56.7L 540.2-56.7L 525.4000000000001-56.7L 525.4000000000001-13.3Z" />
</svg>